<?xml version="1.0" standalone="no"?>
<!DOCTYPE svg PUBLIC "-//W3C//DTD SVG 20010904//EN"
 "http://www.w3.org/TR/2001/REC-SVG-20010904/DTD/svg10.dtd">
<svg version="1.0" xmlns="http://www.w3.org/2000/svg"
 width="500.000000pt" height="500.000000pt" viewBox="0 0 500.000000 500.000000"
 preserveAspectRatio="xMidYMid meet">
<metadata>
Created by potrace 1.14, written by Peter Selinger 2001-2017
</metadata>
<g transform="translate(0.000000,500.000000) scale(0.100000,-0.100000)"
fill="#000000" stroke="none">
<path d="M2407 4843 c-1 -1 -42 -4 -92 -8 -49 -3 -101 -8 -115 -10 -116 -18
-226 -38 -232 -42 -5 -2 -18 -6 -29 -8 -55 -11 -211 -60 -293 -92 -136 -53
-351 -165 -423 -219 -17 -13 -34 -24 -37 -24 -21 0 -232 -176 -336 -280 -231
-231 -399 -480 -513 -760 -47 -116 -50 -124 -52 -130 -1 -3 -12 -39 -25 -80
-13 -41 -25 -84 -27 -94 -2 -11 -10 -45 -18 -76 -8 -30 -17 -73 -20 -95 -4
-22 -9 -53 -12 -70 -40 -227 -31 -573 23 -840 9 -46 10 -49 17 -70 3 -11 8
-31 11 -45 3 -14 18 -65 34 -115 122 -371 303 -666 577 -940 551 -551 1295
-783 2082 -649 93 15 386 97 408 113 5 4 33 16 60 26 42 15 250 118 303 150
247 148 496 370 663 590 85 111 150 215 219 348 62 120 152 338 164 398 3 13
14 56 25 94 19 67 36 155 47 233 3 20 7 51 9 67 44 310 8 693 -95 1005 -123
372 -306 668 -584 945 -296 294 -651 497 -1061 604 -69 19 -94 24 -212 46 -17
3 -53 8 -80 10 -26 2 -75 7 -108 10 -54 6 -274 12 -278 8z m800 -2050 c-2
-478 -6 -887 -10 -910 -30 -194 -112 -339 -244 -429 -125 -85 -249 -114 -472
-110 -345 7 -509 104 -609 361 -30 78 -52 149 -57 190 -1 11 -6 45 -11 75 -4
30 -8 107 -8 170 l-1 114 205 1 c113 0 212 -1 221 -3 11 -2 15 -18 17 -60 8
-246 39 -377 103 -422 100 -72 275 -55 342 33 50 67 50 70 53 992 1 473 2 861
3 863 1 1 107 2 236 2 l236 0 -4 -867z"/>
</g>
</svg>
